/* XPM */
static const char *exit[] = {
/* columns rows colors chars-per-pixel */
"64 64 155 2 ",
"   c #351F2E",
".  c #36202F",
"X  c #38222F",
"o  c #372230",
"O  c #3F2631",
"+  c #4E282E",
"@  c #532B2F",
"#  c #412731",
"$  c #452932",
"%  c #4C2C33",
"&  c #512F34",
"*  c #5C2F31",
"=  c #503035",
"-  c #5C3133",
";  c #563739",
":  c #58363E",
">  c #573839",
",  c #5A383E",
"<  c #643333",
"1  c #6B3634",
"2  c #6F3835",
"3  c #633C3A",
"4  c #6C3F3A",
"5  c #63373A",
"6  c #733733",
"7  c #753A36",
"8  c #783B36",
"9  c #743E39",
"0  c #6F413B",
"q  c #72423C",
"w  c #7E4138",
"e  c #473643",
"r  c #4B3642",
"t  c #503741",
"y  c #5D4D5B",
"u  c #6A4542",
"i  c #764442",
"p  c #784543",
"a  c #754E44",
"s  c #794946",
"d  c #794948",
"f  c #7D5447",
"g  c #624751",
"h  c #644851",
"j  c #724D52",
"k  c #7A5153",
"l  c #77575D",
"z  c #7C595E",
"x  c #575163",
"c  c #595061",
"v  c #6F5B67",
"b  c #715C67",
"n  c #7D5E64",
"m  c #7E6067",
"M  c #7E6168",
"N  c #6F6879",
"B  c #7C6D7A",
"V  c #804239",
"C  c #88473B",
"Z  c #83483C",
"A  c #89483B",
"S  c #934E3E",
"D  c #96513F",
"F  c #98523F",
"G  c #8E5241",
"H  c #8C5F4C",
"J  c #925442",
"K  c #9C5440",
"L  c #A65C43",
"P  c #A85D44",
"I  c #8D604C",
"U  c #996049",
"Y  c #9C6B51",
"T  c #AC6247",
"R  c #A1694F",
"E  c #B36547",
"W  c #B46648",
"Q  c #B46849",
"!  c #BC6B4A",
"~  c #AB7656",
"^  c #AC7857",
"/  c #BA7551",
"(  c #B47D59",
")  c #806F7B",
"_  c #82707B",
"`  c #C16E4B",
"'  c #C3734E",
"]  c #C67751",
"[  c #C87650",
"{  c #C67851",
"}  c #CA7D54",
"|  c #BF855D",
" . c #CD8056",
".. c #C58259",
"X. c #C4895F",
"o. c #D18357",
"O. c #D18559",
"+. c #D58B5C",
"@. c #D98F5F",
"#. c #D9905F",
"$. c #C68A60",
"%. c #CE8D60",
"&. c #D39464",
"*. c #DC9261",
"=. c #DC9A67",
"-. c #E19A65",
";. c #E09864",
":. c #E49D67",
">. c #E49D67",
",. c #E19F69",
"<. c #E59E68",
"1. c #E59E68",
"2. c #E5A26A",
"3. c #E7A16A",
"4. c #E8A36B",
"5. c #E9A46B",
"6. c #E9A46C",
"7. c #E9A56C",
"8. c #EAA56C",
"9. c #EBA56C",
"0. c #EAA46C",
"q. c #EBA66C",
"w. c #EBA76D",
"e. c #ECA76D",
"r. c #EDA76D",
"t. c #EAA56C",
"y. c #EEA86D",
"u. c #EEA86E",
"i. c #EFA96E",
"p. c #EFAA6F",
"a. c #EEAA6F",
"s. c #EEA86D",
"d. c #F0A96E",
"f. c #F0AA6F",
"g. c #F1AB6F",
"h. c #F0AA6E",
"j. c #F3AC6F",
"k. c #F0AA6E",
"l. c #6E7084",
"z. c #6D7389",
"x. c #817785",
"c. c #837886",
"v. c #837886",
"b. c #847C8B",
"n. c #847B8B",
"m. c #7F8094",
"M. c #868394",
"N. c #818BA2",
"B. c #888EA3",
"V. c #8190A9",
"C. c #8A93AA",
"Z. c #8B9BB4",
"A. c #8DA1BC",
"S. c #8FA8C4",
"D. c #90A8C4",
/* pixels */
"! ! ! ! ! ! ! ! ! ! ! ! ! ! ! ! ! ! ! ! ! ! ! ! ! ! ! ! ! ! ! ! ! ! ! ! ! ! ! ! ! ! ! ! ! ! ! ! ! ! ! ! ! ! ! ! ! ! ! ! ! ! ! ! ",
"! ! ! ! ! ! ! ! ! ! ! ! ! ! ! ! ! ! ! ! ! ! ! ! ! ! ! ! ! ! ! ! ! ! ! ! ! ! ! ! ! ! ! ! ! ! ! ! ! ! ! ! ! ! ! ! ! ! ! ! ! ! ! ! ",
"! ! ! ! ! ! ! ! ' ' ' ' ' ' ' ' ' ' ' ' ' ' ' ' ' ' ' ' ' ' ' ' ' ' ' ' ' ' ' ' ' ' ' ' ' ' ' ' ' ' ' ' ' ' ' ' ! ! ! ! ! ! ! ! ",
"! ! ! ! ! ! ! ' { }  . . . . . . . . . . . . . . . . . . . . . . . . . . . . . . . . . . . . . . . . . . . .} { ' ! ! ! ! ! ! ! ",
"! ! ! ! ! ! ` {  .+.@.*.*.@.@.@.@.@.@.@.@.@.@.@.@.@.@.@.@.@.@.@.@.@.@.@.@.@.@.@.@.@.@.@.@.@.@.@.@.@.#.*.*.@.+. .{ ` ! ! ! ! ! ! ",
"! ! ! ! ! ! ' } +.*.:.<.<.:.:.:.>.:.:.:.:.:.:.:.:.:.:.:.:.:.:.:.:.:.:.:.:.:.:.:.>.:.:.:.:.:.:.:.:.:.<.<.<.>.*.+.} ' ! ! ! ! ! ! ",
"! ! ! ! ! ' } O.*.<.8.8.8.8.8.8.8.8.8.8.8.8.8.8.8.8.8.8.8.8.8.8.8.8.8.8.8.8.8.8.8.8.8.8.8.8.8.8.8.8.8.8.8.8.<.*.O.} ' ! ! ! ! ! ",
"! ! ! ' ] } O.#.;.4.e.y.y.y.g.g.g.g.g.g.g.g.g.g.g.g.g.g.g.g.g.g.g.g.g.g.g.g.g.g.g.g.g.g.g.g.g.g.g.g.g.y.y.e.4.;.#.O.} ] ' ! ! ! ",
"! ! ! ]  .+.*.;.<.5.e.y.y.g.g.g.g.g.g.g.g.g.g.g.g.g.g.g.g.g.g.g.g.g.g.g.g.g.g.g.g.g.g.g.g.g.g.g.g.g.g.y.y.e.5.<.;.*.+. .] ! ! ! ",
"! ! ' } +.=.<.4.5.8.8.8.8.8.8.8.8.8.8.8.8.8.8.8.8.8.8.8.8.8.8.8.8.8.8.8.8.8.8.8.8.8.8.8.8.8.8.8.8.8.8.8.8.8.8.5.4.<.*.+.} ' ! ! ",
"' ' } O.*.<.8.e.e.8.4.,.=.&.&.&.&.&.&.&.&.&.&.&.&.&.&.&.&.&.&.&.&.&.&.&.&.&.&.&.&.&.&.&.&.&.&.&.&.&.&.=.,.4.8.e.e.8.<.*.O.} ' ' ",
"}  .O.@.;.4.e.g.g.y.3.&.X.( ~ ~ ~ ~ ~ ~ ~ ~ ~ ~ ~ ~ ~ ~ ~ ~ ~ ~ ~ ~ ~ ~ ~ ~ ~ ~ ~ ~ ~ ~ ~ ~ ~ ~ ~ ~ ( X.&.3.y.g.g.e.3.;.@.O. .} ",
"@.*.*.;.<.4.e.g.j.y.,.$.~ I f f f f f f f f f f f f f f f f f f f f f f f f f f f f f f f f f f f f I ~ $.,.y.j.g.e.5.<.;.*.*.@.",
":.<.<.3.4.5.8.y.y.8.&.( H u > = ; ; ; ; ; ; ; ; ; ; ; ; ; ; ; ; ; ; ; ; ; ; ; ; ; ; ; ; ; ; ; ; = > u H ( &.5.y.y.8.8.4.3.<.:.:.",
"8.8.8.8.8.8.4.3.,.&.| Y a ; # o O O O O # O O O O O O O O O O O O O O O O O O O O O O O O # O O o # ; a Y | &.,.3.4.8.8.8.8.8.8.",
"e.8.e.e.e.8.,.&.$.( Y f 0 % X     . . . . . . . . . . . . . . . . . . . . . . . . . . . . . X     X % 3 f Y ( $.&.,.8.e.y.e.e.e.",
"8.8.8.y.y.8.=.X.~ H a 0 = $ X . . X X X . . . . . . . . . . . . . . . . . . . . . . . . . X X X . o $ = 3 a H ~ X.=.8.y.y.e.8.8.",
"8.8.8.y.y.8.&.( I u ; % $ # O O O O O O O O O O O O O O O O O O O O O O O O O O O O O O O O O O O O # $ % ; u I ( &.8.y.y.8.8.8.",
"8.8.8.y.g.8.&.~ f > # X X O # # # $ $ % % % % = = = = = = = = = = = = = = = = = = = % % % $ $ $ # # O X X # > f ~ &.8.g.y.8.8.8.",
"8.8.8.y.g.8.&.~ f = X   . O # $ % % & - 5 4 0 0 q 0 0 0 0 0 0 0 0 0 0 0 0 0 0 q q 0 4 5 - & % % $ # O .   X = f ~ &.8.g.y.8.8.8.",
"8.8.8.y.g.8.&.~ f ; o   X O $ % & - < 9 Z G J J J J J J J J J J J J J J J J J J J J G Z 9 < - & % $ O .   O ; f ~ &.8.g.y.8.8.8.",
"8.8.8.y.g.8.&.~ f ; O . X O $ % - 1 8 C K L T T T T T T T T T T T T T T T T T T T T L K C 8 1 - % $ O X . O ; f ~ &.8.g.y.8.8.8.",
"8.8.8.y.g.8.&.~ f ; O . X O $ & < 8 C S L T E W W E E E E E E E E E E E E E E W W E T L S C 8 < & $ O X . O ; f ~ &.8.g.y.8.8.8.",
"8.8.8.y.g.8.&.~ f ; O . X O % - 9 C S K L L L P P P L L L L L L P P P L L L P P P P L L K S C 9 - % O X . O ; f ~ &.8.g.y.8.8.8.",
"8.8.8.y.g.8.&.~ f ; O . . O % 5 Z K L L K D S S S S S S S S S S S S S S S S S S S S D K L L K Z 5 % O . . O ; f ~ &.5.g.y.8.8.8.",
"8.8.8.y.g.8.&.~ f ; O . . O % 4 G L T L D C V w w V V V V V V V V V V V V V V w w V C D L T L G 4 % O . . O ; f ~ &.5.g.y.8.8.8.",
"8.8.8.y.g.8.&.~ f ; O . . O = 0 J T E L S V 8 7 7 7 7 7 7 7 7 7 7 7 7 8 7 7 7 7 7 8 V S L E T J 0 = O . . O ; f ~ &.8.g.y.8.8.8.",
"8.8.8.y.g.8.&.~ f ; O . . O = q J T W P S w 7 6 6 6 7 7 7 7 7 7 7 7 7 7 7 7 6 6 6 7 w S P W T J q = O . . O ; f ~ &.8.g.y.8.8.8.",
"8.8.8.y.g.8.&.~ f ; O . . O = q J T E L S w 7 6 6 7 7 7 7 7 7 7 7 7 7 7 7 7 7 6 6 7 w S P W T J q = O . . O ; f ~ &.8.g.y.8.8.8.",
"8.8.8.y.g.8.&.~ f ; O . . O = 0 J T E L S V 7 6 7 7 7 7 7 7 7 7 7 7 7 7 7 7 7 7 6 7 V S L E T J 0 = O . . O ; f ~ &.8.g.y.8.8.8.",
"8.8.8.y.g.5.&.~ f ; O . . O = 0 J T E L S V 7 7 7 7 7 7 7 7 7 7 7 7 7 7 7 7 7 7 6 7 V S L E T J 0 = O . . O ; f ~ &.8.g.y.8.8.8.",
"8.8.8.y.g.5.&.~ f ; O . . O = 0 J T E L S V 7 7 7 7 7 7 7 7 7 7 7 7 7 7 7 7 7 7 6 7 V S L E T J 0 = O . . O ; f ~ &.8.g.y.8.8.8.",
"8.8.8.y.g.8.&.~ f ; O . . O = 0 J T E P S V 7 7 7 7 7 7 7 7 7 7 7 7 7 7 7 7 7 7 7 7 V S L E T J 0 = O . . O ; f ~ &.8.g.y.8.8.8.",
"8.8.8.y.g.8.&.~ f ; O . . O = 0 J T E P S V 7 7 7 7 7 7 7 7 7 7 7 7 7 7 7 7 7 7 7 8 V S L E T J 0 = O . . O ; f ~ &.8.g.y.8.8.8.",
"8.8.8.y.g.8.&.~ f ; O . . O = 0 J T E L S V 7 6 7 7 7 7 7 7 7 7 7 7 7 7 7 7 7 7 7 7 V S P E T J 0 = O . . O ; f ~ &.8.g.y.8.8.8.",
"8.8.8.y.g.8.&.~ f ; O . . O = 0 J T E L S V 7 6 6 6 6 6 6 6 6 7 7 7 7 7 7 7 7 7 7 7 V S P E T J 0 = O . . O ; f ~ &.8.g.y.8.8.8.",
"8.8.8.y.g.8.&.~ f ; O . . O = 0 J T E P S V 7 6 6 6 6 6 6 6 6 6 7 7 7 7 7 7 7 7 7 7 V S P E T J 0 = O . . O ; f ~ &.8.g.y.8.8.8.",
"8.8.8.y.g.8.&.~ f ; O . . O = 0 J T E L S V 7 6 7 7 8 8 8 8 7 7 8 7 7 7 7 7 7 7 7 7 V S P E T J 0 = O . . O ; f ~ &.8.g.y.8.8.8.",
"8.8.8.y.g.8.&.~ f ; O . . O = 0 J T E P S V 8 8 i p d d d d p i q 8 7 7 7 7 7 7 7 7 V S L E T J 0 = O . . O ; f ~ &.8.g.y.8.8.8.",
"8.8.8.y.g.8.&.~ f ; O . . O = 0 J T E L S V q p k z n m m n z k d q 7 7 7 7 7 7 7 7 V S L E T J 0 = O . . O ; f ~ &.8.g.y.8.8.8.",
"8.8.8.y.g.8.&.~ f ; O . . O = 0 J T E L S V i k M ) v.b.b.v._ M k i 8 6 7 7 7 7 7 7 V S L E T J 0 = O . . O ; f ~ &.8.g.y.8.8.8.",
"8.8.8.y.g.8.&.~ f ; O . . O = 0 J T E L S V p z ) M.B.C.C.B.M._ z p 8 6 6 7 7 7 7 7 V S L E T J 0 = O . . O ; f ~ &.8.g.y.8.8.8.",
"8.8.8.y.g.8.&.~ f ; O . . O = 0 J T E L S V d n x.B.Z.A.A.Z.B.c.n d 8 6 6 7 7 7 7 7 V S P E T J 0 = O . . O ; f ~ &.8.g.y.8.8.8.",
"8.8.8.y.g.8.&.~ f ; O . . O = 0 J T E L S V d n n.C.A.S.S.A.C.b.m d 8 6 6 7 7 7 7 7 V S P E T J 0 = O . . O ; f ~ &.8.g.y.8.8.8.",
"8.8.8.y.g.8.&.~ f ; O . . O = 0 J T E L S V d n n.C.A.D.D.A.C.b.m d 8 6 6 7 7 7 7 7 V S P E T J 0 = O . . O ; f ~ &.8.g.y.8.8.8.",
"8.8.8.y.g.8.&.~ f ; O . . O = 0 J T E L S V d n x.B.Z.A.A.Z.B.v.n d 8 6 6 7 7 7 7 7 V S P E T J 0 = O . . O ; f ~ &.8.g.y.8.8.8.",
"8.8.8.y.g.8.&.~ f ; O . . O = 0 J T E L S V p l B m.N.V.V.N.m.B z p 8 6 6 7 7 7 7 7 V S L E T J 0 = O . . O ; f ~ &.8.g.y.8.8.8.",
"8.8.e.g.g.8.&.~ f ; O . . O = 0 J T E L S V i j v N l.z.z.l.N b j i 7 6 7 7 7 7 7 7 V S L E T J 0 = O . . O ; f ~ &.8.g.g.e.8.8.",
"e.e.y.g.g.8.&.~ f > O . . O = 0 J T E P S V 9 u g y c x x c y h u 9 7 7 7 7 7 7 7 7 V S P E T J 0 = O . . O ; f ^ &.8.g.g.e.8.e.",
"8.8.8.y.g.5.&.~ f > O . . O = 0 J T E P S V 9 5 : r r e e r r , 5 9 7 7 7 7 7 7 6 7 V S P E T J 0 = O . . O ; f ~ &.5.g.y.8.8.8.",
":.:.<.4.4.>.%.~ f ; O . . O = 0 J T E P S V 6 < & % $ $ $ $ % - < 6 7 8 8 7 7 7 7 7 V S P E T J 0 = O . . O ; f ~ %.>.4.4.<.:.:.",
"*.*.*.*.*.#...R a ; O . . O = 0 J T E P S V 6 < * @ @ + + @ @ - 1 6 7 8 8 7 7 7 6 7 V S L E T J 0 = O . . O ; a R ..#.*.*.*.*.*.",
" . . .o.O. ./ H q = O . . O = 0 J T E P S V 6 1 < < < - - < < 1 2 6 7 7 7 7 7 7 7 7 V S L E T J 0 = O . . O = q U /  .O.o. . . .",
"' ' ' ' [ ' Q J q = O . . O = 0 J T E P S V 7 6 2 2 2 2 2 2 2 6 6 7 7 7 7 7 7 7 7 7 V S L E T J 0 = O o . O = 0 J Q ' [ ' ' ' ' ",
"! ! ! ` ` ! T G 0 = O . . O = 0 J T E L S V 7 6 6 7 7 7 7 7 7 7 7 7 7 7 7 7 7 7 6 7 V S L E T J 0 = O o o O & 4 G T ! ` ` ! ! ! ",
"! ! ! ! ` ! T G 4 & O o o O = 0 J T E L S w 7 6 6 7 7 7 7 7 7 7 7 7 7 7 7 7 7 6 6 7 w S L E T J 0 = O o o O & 4 G T ! ` ! ! ! ! ",
"! ! ! ! ` ! T G 4 & O . . O = 0 J T E L S w 7 6 6 7 7 7 7 7 7 7 7 7 7 7 6 6 6 6 6 7 w S L E T J 0 = O o . O & 4 G T ! ` ! ! ! ! ",
"! ! ! ` ` ! T G 0 & O . . O = 0 J T E P S V 7 7 7 7 7 7 7 7 7 7 7 8 7 7 7 7 7 7 7 8 V S P E T J 0 = O . . O & 4 G T ! ` ` ! ! ! ",
"! ! ! ` ` ! T G 0 = O . . O = 0 J T W P K A V w w w V V V V V V V V V V V V V w w V A K P W T J 0 = O . . O = 0 G T ! ` ` ! ! ! ",
"! ! ! ` ` ! T G 0 & O . . O = 0 J T W E L F S A S S S S S S S S S S S S S S S S A S K L E W T J 0 = O . . O = 0 G T ! ` ` ! ! ! ",
"! ! ! ` ` ! T G 0 & O . . O = 0 J T ! ! E P L L L L L L L L L L L L L L L L L L L L P E ! ! T G 0 = O . . O = 0 G T ! ` ` ! ! ! ",
"! ! ! ` ` ! T G 0 = O . . O = 0 G T ! ! ! W E E E E E E E E E E E E E E E E E E E E W ! ! ! T G 0 = O . . O = 0 G T ! ` ` ! ! ! ",
"! ! ! ` ` ! T G 0 & O . . O = 0 G T ! ` ` ! ! ! ! ! ! ! ! ! ! ! ! ! ! ! ! ! ! ! ! ! ! ` ` ! T G 0 = O . . O = 0 G T ! ` ` ! ! ! ",
"! ! ! ` ` ! T G 0 = O . o O = 0 G T ! ` ' ` ` ` ` ` ` ` ` ` ` ` ` ` ` ` ` ` ` ` ` ` ` ' ` ! T G 0 = O . . O = 0 G T ! ` ` ! ! ! "
};
