/* XPM */
static const char *floor[] = {
/* columns rows colors chars-per-pixel */
"64 64 160 2 ",
"   c #3E6503",
".  c #416704",
"X  c #446C06",
"o  c #486F07",
"O  c #466E09",
"+  c #486F09",
"@  c #487007",
"#  c #477009",
"$  c #4C730C",
"%  c #4E780E",
"&  c #50770F",
"*  c #51780F",
"=  c #4F7610",
"-  c #4F7812",
";  c #507711",
":  c #527B13",
">  c #537B13",
",  c #537A12",
"<  c #517911",
"1  c #547A11",
"2  c #547B12",
"3  c #547A13",
"4  c #547B13",
"5  c #547C13",
"6  c #557C13",
"7  c #567D13",
"8  c #517914",
"9  c #517815",
"0  c #517915",
"q  c #527915",
"w  c #527A14",
"e  c #537A14",
"r  c #527B14",
"t  c #537B14",
"y  c #537B15",
"u  c #527A16",
"i  c #547B14",
"p  c #557A15",
"a  c #557B15",
"s  c #547B17",
"d  c #537C15",
"f  c #547C14",
"g  c #557C14",
"h  c #547D14",
"j  c #547C15",
"k  c #557C15",
"l  c #557D15",
"z  c #567C14",
"x  c #567D14",
"c  c #567D15",
"v  c #577D15",
"b  c #557E15",
"n  c #567E15",
"m  c #577E15",
"M  c #567F15",
"N  c #547C16",
"B  c #547D16",
"V  c #557D16",
"C  c #547D17",
"Z  c #577C16",
"A  c #567D16",
"S  c #567C17",
"D  c #577D17",
"F  c #557E17",
"G  c #567E16",
"H  c #577E16",
"J  c #567E17",
"K  c #567F17",
"L  c #577F17",
"P  c #547B13",
"I  c #587E16",
"U  c #587F16",
"Y  c #587E17",
"T  c #587F17",
"R  c #587F16",
"E  c #547B18",
"W  c #547C18",
"Q  c #557D18",
"!  c #567D18",
"~  c #577F18",
"^  c #567E19",
"/  c #577E1A",
"(  c #577F1B",
")  c #567E18",
"_  c #597F18",
"`  c #587E19",
"'  c #578017",
"]  c #578016",
"[  c #588017",
"{  c #598017",
"}  c #578018",
"|  c #57801A",
" . c #578019",
".. c #588018",
"X. c #598018",
"o. c #588019",
"O. c #588119",
"+. c #598119",
"@. c #5A8018",
"#. c #5A8019",
"$. c #5B8119",
"%. c #5A8219",
"&. c #5B8219",
"*. c #58801A",
"=. c #59811A",
"-. c #58801B",
";. c #59811B",
":. c #5A801B",
">. c #59821A",
",. c #59821B",
"<. c #5A821A",
"1. c #5A821B",
"2. c #5B821B",
"3. c #5A831B",
"4. c #5B831B",
"5. c #5C821A",
"6. c #5D831B",
"7. c #5C841A",
"8. c #5D841B",
"9. c #5A821C",
"0. c #5A831C",
"q. c #5B831C",
"w. c #5A821D",
"e. c #5A831D",
"r. c #5B831D",
"t. c #5C831C",
"y. c #5D831C",
"u. c #5B841C",
"i. c #5B841E",
"p. c #5C841C",
"a. c #5C841D",
"s. c #5D841D",
"d. c #5C851D",
"f. c #5D851D",
"g. c #5E851C",
"h. c #5E841D",
"j. c #5D861D",
"k. c #5F861C",
"l. c #5C851F",
"z. c #5F851E",
"x. c #5D861F",
"c. c #5F871F",
"v. c #5B821B",
"b. c #5F881D",
"n. c #60861E",
"m. c #60861F",
"M. c #60861E",
"N. c #61891F",
"B. c #5D8620",
"V. c #5F8721",
"C. c #5E8520",
"Z. c #618621",
"A. c #608820",
"S. c #618821",
"D. c #628920",
"F. c #638A21",
"G. c #618A22",
"H. c #628B22",
"J. c #658E25",
"K. c #628A22",
/* pixels */
":.D < & < & @ % :.d._ < = q B.B._ < < % $ ; :.9.q = $ $ = a 5.F.J.u.+ X % 6 4 :.F.F.8.6 % % < 4 4 U n.F.9.D % $ @ < :.D O . X # ",
"D a < < 4 < $ % D ~ < = < ~ 9.9.~ < < % % < ~ ~ q = $ % ; D d.F.N.:.% @ % < & a d.d.:.6 % % & < < D t.d.:.q % @ % < :.:.% + @ @ ",
"% ; < 4 D D < & $ @ X @ E ~ q q D D % = D D = % ; < % % 4 _ n.d.D < D D ; $ + @ D { D < % $ % % < D D D q % @ + % D 9.9.| D < < ",
"% & < D D D a ; @ O X $ q q % % q q < < :.~ % $ < < $ @ < :.d.5.< < D D - @ @ $ & < < ; $ @ X @ & a D D < % X X % < 9.d.9.~ 4 < ",
"D D D D D 4 < ; < q q = O X O + % < q ~ ( ~ < < :.D O X & D U D D 5 < % % < :._ < % % $ X X . X % D :.:.D % @ X X % :.d.D % % % ",
"U D < % & % = = < q D = X . X + $ % = q a ~ U :.d.U @ X $ < < < < % % % < D d.d.D ; % $ X X X @ < ' u.:.D < % @ @ % D D < % ; < ",
"D < + X X @ % $ + O + @ + + @ $ % $ @ @ $ q t.n.8.U < $ @ @ ; % O X @ % D :.:.:.:.:.6 & @ @ * 6 D :.:.D < < < < D < % % < D :.:.",
"4 & O X X @ $ @ X X + $ % % % $ $ $ % % % ; :.5.D 4 4 & + + % $ X X % D d.:.< < D | D < % % < D D D < % % % < a a < @ % ' d.d.u.",
"4 < @ @ < < $ X . O D :.D < % @ X % B.F.D ; ; & @ @ % % + + ; ; @ % :.F.F.:.% @ $ % % ; q < $ $ < < O X X @ % = + + % D d.F.:.D ",
"D 4 & & D q % O X $ ~ 9.D ; % @ X % d.Z.a $ % $ @ @ % ; ; ; < & $ < b.J.F.5.& @ O O O $ < = O O * < O X X X $ $ O + % D d.d.D 4 ",
"u.:.6 < & % < ; & % % % % % $ @ @ @ % $ + @ < 4 < & < D 5.:.< $ @ % :.b.d.d.:.6 @ X . X $ $ O O < < q % X X O $ ; < % % < < D D ",
"d.:.D < & & < D D q = $ @ @ $ % < < $ + X o & 4 D D 4 D :.U % @ @ % D :.' { 8.{ @ X . X @ $ $ $ = < D q # X @ % D a % @ @ % D :.",
"| ~ D 4 6 D 6 D ' :.| q $ O $ q 9.d.:.4 @ X X % _ 9.< % % $ X + % < 6 < % % 6 4 % @ + @ @ $ $ % % % ; = % % = < a < % @ @ < :.n.",
"N D D D < < < < D D D q $ $ $ q d.F.F.:.% o + $ _ _ ; $ % $ @ @ & D { D % @ % < < % % % $ $ $ $ $ $ = = % % < < 4 < < = % < :.n.",
"= q :.D $ + $ % % % # @ % = % = D :.d.:.% $ ; a < ; % ; _ :.a < * D F.F.D % % ; D D 4 = $ O X X + $ ; ; @ + $ % < D :.~ 4 4 { 5.",
"q D :.q X . X % < % X X < D % % < D D < % ; D D ; $ @ & U t.5.U 4 U N.N.D & % % < q < % $ $ @ @ @ $ % % $ @ $ % < D :.:.{ D D 6 ",
"9.~ < $ X   X % d.:.O X _ 5.< % < < @ # $ ; a D < & @ @ $ 4 d.n.:.D 6 < % % % % @ + o @ = q D D < % @ $ < D < < 4 6 D U :.U < % ",
":.D < @ O X X $ :.~ O X a U % $ & % O O ; a 4 4 D 4 & $ @ & 5.n.{ < % @ @ $ % % @ X X @ < ~ :.:.~ < X + D :.< & < < < D :.D & $ ",
"; < < < q = O O $ @     + @ X o $ % % < _ _ < < D U U D a D U D * % $ $ % % & & < < $ @ = q D ~ 9.q X X D ~ % + $ & < 4 D 4 & % ",
"% = < < q = $ O X X X O O X X X % < < D :.:.< & 4 U 5.5.:._ D * @ @ % & < < < 4 ~ D = % = < < < ~ q O O q D % @ $ & < 4 < < < ; ",
"D N % @ O O @ $ % < D D 5 % X + ~ u.D < _ ~ ; % & 4 5.8.:.U D & @ @ & D D _ _ _ :.D = = ~ N % @ @ $ % ; a D 4 < < < 4 < % & 4 D ",
":.D $ X O @ @ % < D D ~ :.6 @ @ :.u.D < ~ D % % & D 5.5.U 4 < % X X < U :.:.d.:.q < q ~ 9.~ $ O X @ < D D D U D < * < < ; < 4 a ",
"D < @ @ < D % % < ; O $ { :.* % < < < D :._ & % D :.5.U < % % @ X X & D D :.d._ $ $ :.B.u.D $ O % < < D :.:.D < @ @ $ & D D < % ",
"4 & O @ ' :.< % < < @ $ :.:.* @ $ % & D 5.:.& % a { { U < < < % O + ; < % < _ D @ $ :.d.:.< @ @ ; 4 < a :.:.a % @ @ $ < U U < % ",
"4 ; @ @ < 6 % % 6 { :.u.d.D O X @ % % 4 n.d.& @ % < 4 D :.:.d.:.; $ < = O O = < = ; D D < % X + ; < % & a a & % & ; < < < 4 4 4 ",
"D < @ @ < D < % < D d.F.d.q X X @ < < U d.5.% X + @ % < :.d.N.d.D q < % X X O = D U D < % @ @ @ % < % % < ; % % < 4 4 < < 4 U _ ",
"d.D @ @ D :.D < @ $ 4 :.u.D @ @ % D b.N.8.< X . X X X @ * 6 U :.~ D < % @ X X O :.d.U < % % < < % % * < % % < < < ; ; a U :.:._ ",
"d.D % % D :.:.D % @ ; a D D % % 4 :.N.N.D % + X + @ o + @ % < D :._ ~ q q % X O ~ d.D < & * 6 < @ @ < < ; & < 4 < ; ; a t.t.a < ",
"D D a < < < D :.D a 4 < < < 6 D :.:.:.6 @ @ % < D < < % @ @ * D ~ 9.B.Z.B.~ % @ % < 4 4 < < < % o + & 6 D D 4 4 < 4 a _ t._ $ X ",
"% < D D ; % D ~ D D < & % % < { u.:.D & @ @ * D :.:.:.< X X % < ; q 9.B.F.d.< % % % < < < < < & @ @ < D 4 4 4 D D U D U :.a + . ",
"X + < D < < < < ; % % % $ $ % < :.:.D < % @ @ % :.d.8.4 O X $ % O O $ q 9.d.D < < < % % % < D D < < D 6 $ $ < U 5.5.U 4 < ; % % ",
"@ $ < < < < < ; % % % % % % @ % :.d.D < 5 < % * ' :.:.< X X $ $ X X X $ | :.D < ; ; ; % @ % D D D 6 4 & o @ < U 5.U 4 < ; < 4 4 ",
"d.:.5 % % % < < & & < < 6 & X @ B.F.D < { 8.8.:.< < ; $ X X @ % % % @ % D | < $ @ $ D D @ @ % < 6 < $ + + $ 4 D 4 ; % < U { D 4 ",
"F.d.5 % % ; < 4 < < 6 D U < O @ :.d.; % D d.n.5.< $ % @ @ @ < D D < % % D < $ O + % ~ D @ O % < < % o O $ < D 4 % $ % < U { 6 < ",
":.D < < D D D 4 < 4 D _ D 4 & % % @ X O % 6 :.{ < % % % % D N.F.:.6 < % % @ X X = D N < $ $ < < % $ + $ E _ D < $ $ < 6 < < * * ",
"4 < < < 5 N < < 4 D a a a D U D @ X @ @ $ % % - < < < < < { N.F.u.6 % % % $ X @ N ' < % % % < < ; % % q t.t.D * % % * < % % * 4 ",
"6 6 < < @ @ % ; a a = % < U n.d.a < N q = $ X X - ~ ~ D D 4 6 D ' 5 @ @ < D D D D D < < < < % ; a D :.:.n.8.6 * & % @ @ % * U { ",
"< < 6 < % @ @ % 4 < $ @ < _ t.:.q q :.:.< O     - :.| ~ D < % % < < % % < D { D < < D D 4 % + $ < _ d.d.8.{ 6 * & % @ @ % < U $.",
"@ % 5 D D 5 % % < < @ @ a D ; $ $ = ~ ~ ; @ X X < | | ~ D < < % @ @ 5 6 % % % % @ = ~ :.< +     $ < :.8.D 6 6 6 & % < < % % 4 D ",
"X @ D { D < % & 4 4 % % a a = @ O = D D $ O @ % < D D D D < < * @ % ' { < % % @ # $ D ~ < $ X X @ < :.:.4 * 6 4 & ; D D < & < 4 ",
"X @ { { $ O % D :.:.6 4 D D a q < < ~ q O X < D < < = ; < < < < < 6 :.:.:.{ { < @ X % < < < ; ; < 6 { { 4 & % & < < < 4 6 6 4 < ",
"@ % U D O X % D 8.d.:.U 4 < D D < 4 D q @ @ D :.D < = = < < % < D U D { n.N.d.D @ X % < & < D _ D U 5.{ 6 < & * 4 < & & 6 U D D ",
"D D < % @ @ < U d.n.8.{ < % % % % ; a D N N D D D ~ D q = % % < 6 4 % < N.F.:.< X @ D D $ @ 4 :.:.:.5.5.:.{ U U D < % % < U 5.8.",
":.D = $ % & < D 5.8.8.D % @ $ $ $ $ % = < D D D q q q q < < % % % % % * :.8.U < $ % D | % $ < D D :.5.d.u.:.5.{ 4 & @ % < { 8.n.",
"D a = = < < 4 D D U D < $ @ $ = = $ X X X $ q a % @ @ = ~ ~ < @ X @ 4 4 $ $ 4 D D D D D ~ D D < ; < 5.d.{ D { U & $ @ % D 8.n.n.",
"< < < < < < ; ; ; < < ; $ $ ; 8 ; $ X . X $ ~ ~ % @ $ = ~ ~ < @ X X 4 6 + o ; D :.:.D D :.:.D < % < { :.D 4 4 < & % % < { 8.n.n.",
"= < q q q = @ + @ $ ; ; $ % a a ; $ @ @ $ q 9.B.| N q q = % < % O + < 4 % $ % < U :.:.:.D D & % 4 4 < < < < % % & < 6 D D { 8.n.",
"< < D D < % @ + + $ ; ; ; < D ~ q ; % ; < :.F.H.B.9.| q $ $ ; < < = ; & & % $ % a :.d.8.U 4 & & < < & ; 4 < @ @ < D { { 4 4 :.5.",
"D D D < ; & < < & & < D :.:.D D D a < < D t.H.J.d.:.D a < ; = D Z.d.% + + $ $ % ; a :.5.5._ 4 & $ % < D _ a @ @ 4 { 8.{ < & 4 D ",
"{ U 4 < % * D D & % & < D D < < D D 6 D U t.F.Z.:.< ; & < < = q d.t.@ X + $ ; ; ; a 5.n.d.5.D & @ $ 4 U U a % % 4 D D < % % < 4 ",
"5.U < % $ % 4 < % @ @ @ @ @ % & 4 D 4 D :.5.:.D % + X X @ % % % % @ X X $ 8 _ _ 8 a d.F.n.5.< $ @ % U U < ; 4 6 < % + + @ % < 4 ",
"{ a $ @ % < < & @ @ @ @ @ @ $ % < 4 4 D U D < @ X X + $ = ; % $ + X @ $ ; a _ E = q t.Z.5.U ; $ $ & 6 6 ; < D D & @ + + $ % < < ",
"a ; O + 4 U < % $ @ + $ 4 a ; ; < 4 4 4 < % O . . @ :.F.d.:.a ; % ; E _ _ a $ + + = _ _ ; $ = = % % & < a a < & < < < < < < % % ",
"; $ O + < a % $ $ $ $ = D _ a ; ; ; ; < < $     . % F.J.d.:.:.D ; q 9.B.9.a $ + $ = a a $ $ = ; ; & % ; a a & & 4 U U U D < % % ",
"= = $ $ + + $ $ $ $ < q q < < ; $ @ @ % D =     X % 9.9.= = 9.:.$ % 9.Z.t._ a a q q q ; ; ; < < < 4 D a ; & < 4 U :._ _ D 4 < < ",
"= ; ; $ O O $ = $ $ < q < < < < $ O $ ; ~ q O . O = :.:.= % ~ D + @ :.B.9._ _ _ ~ E ; ; ; ; < a D D a q ; & ; 4 U U _ D < < D :.",
"< < < < ; ; ; = $ $ % ; 4 D 4 < $ % D :.:.D < % $ ; d.Z.t.E = + X O q 9.( E q q ~ E ; $ $ % ; a D a $ $ q a $ $ ; a a < @ % t.H.",
"4 4 4 4 4 4 ; ; ; & % % 4 D D 4 < D u.d.:.D 4 & % ; 5.n.t.a @ X X $ q ~ E = $ = ~ ~ $ @ % ; q a D ; X X = < $ $ ; < a < % ; 9.Z.",
"4 4 < < 4 < % ; U U < % * 4 D U 5.d.d.d.U ; @ + @ % < 4 & @ O O = E _ E = O   X E ~ + O ; _ _ _ < @     X @ ; < < a D :.t._ ; $ ",
"4 < < 4 D D < 4 5.5.4 & < 4 D _ d.d.d.:.D & + O $ % % $ o X @ = E _ ~ 8 $ X   X E E + + 8 _ _ D % + . . O @ % ; < a a _ Z.t.; @ ",
"; < a U t.t._ _ :.U 4 4 U U a a D U D D < & & ; q < $ + X O = q D q = $ + O + = 8 8 = $ = q q ; % $ $ $ ; = O O % ; $ % a _ U D ",
"$ ; < D _ 9.d.t.U a 4 4 U U ; & < 4 4 4 < & < < D q $ X X @ q D < % O X O + $ = ; q q q 8 8 ; ; % ; a ~ _ a O O $ $ @ $ ; a U U ",
"X + % % $ ; t.n.U 4 < < 6 4 $ $ < 4 4 4 < < % ; D < O X @ = N q % O X . O + + $ q ~ 9.9.~ E 8 ; < a :.t.:.~ q = $ $ $ ; < < % $ ",
"X X @ @ X $ t.F.U < & & < & @ @ * 4 4 4 4 < % % q < X X $ q D q $ X     O + + $ E 9.C.C.9.~ 8 ; < U d.d.9._ _ q $ + = ; a ; @ X "
};
