/* XPM */
static const char *object[] = {
/* columns rows colors chars-per-pixel */
"64 64 193 2 ",
"   c #3E465B",
".  c #40475D",
"X  c #42495E",
"o  c #464D63",
"O  c #484E62",
"+  c #4C5265",
"@  c #4D546B",
"#  c #505567",
"$  c #525769",
"%  c #52586B",
"&  c #595B6B",
"*  c #505771",
"=  c #525971",
"-  c #585F79",
";  c #5A5D72",
":  c #5E647F",
">  c #62626F",
",  c #656472",
"<  c #6D6B76",
"1  c #716F7A",
"2  c #77747D",
"3  c #F27D3A",
"4  c #F77836",
"5  c #81797F",
"6  c #78BA5A",
"7  c #36DC6D",
"8  c #28E26F",
"9  c #24E26C",
"0  c #2CE372",
"q  c #26E470",
"w  c #34E376",
"e  c #3CE47C",
"r  c #39E176",
"t  c #5CC963",
"y  c #4AD870",
"u  c #76C569",
"i  c #41E47E",
"p  c #DA883F",
"a  c #E9823E",
"s  c #BA9847",
"d  c #8EAF55",
"f  c #A7AC5C",
"g  c #ADA14E",
"h  c #A1BD73",
"j  c #D2924A",
"k  c #EE8848",
"l  c #F48649",
"z  c #F88E57",
"x  c #F5925C",
"c  c #EF955E",
"v  c #F59C6B",
"b  c #F99A6A",
"n  c #CBAE71",
"m  c #F5A173",
"M  c #EBA472",
"N  c #5F6682",
"B  c #616783",
"V  c #626884",
"C  c #686E8C",
"Z  c #6D728C",
"A  c #797985",
"S  c #7C7F8C",
"D  c #747482",
"F  c #6D7493",
"G  c #6F7698",
"H  c #707697",
"J  c #707798",
"K  c #737999",
"L  c #797E9D",
"P  c #757893",
"I  c #817B87",
"U  c #7D808E",
"Y  c #7A809E",
"T  c #7E84A1",
"R  c #75DA89",
"E  c #4EE687",
"W  c #54E589",
"Q  c #50E587",
"!  c #5FE690",
"~  c #67E796",
"^  c #7EEEAB",
"/  c #948A8D",
"(  c #92878C",
")  c #86859B",
"_  c #938E9F",
"`  c #9E9292",
"'  c #9F949B",
"]  c #A3999B",
"[  c #8086A3",
"{  c #848AA6",
"}  c #8A8CA3",
"|  c #8A8FA9",
" . c #878CA8",
".. c #8D92AB",
"X. c #9196AE",
"o. c #9398AF",
"O. c #9C98A7",
"+. c #959AB1",
"@. c #999DB3",
"#. c #A59CA3",
"$. c #A39DA9",
"%. c #ABA4A7",
"&. c #ADA7AD",
"*. c #B7A8A4",
"=. c #B6A9AD",
"-. c #B8A8A6",
";. c #AFACB2",
":. c #A9ACBE",
">. c #A3A6BA",
",. c #B2AEB9",
"<. c #B3B2B8",
"1. c #B2B0B6",
"2. c #BFB0AF",
"3. c #DBBE92",
"4. c #F8AD86",
"5. c #F5B28C",
"6. c #F6BA9A",
"7. c #C6B4AE",
"8. c #CDBCB6",
"9. c #CCBDBA",
"0. c #C5B7B7",
"q. c #FABDA0",
"w. c #9BCD88",
"e. c #B8D09B",
"r. c #85EAA9",
"t. c #86EAA9",
"y. c #9EECB9",
"u. c #99EBB4",
"i. c #97E1A4",
"p. c #A4EBBA",
"a. c #D3C2BB",
"s. c #DAC7BE",
"d. c #CFD4AD",
"f. c #F6C3A6",
"g. c #F7D1BD",
"h. c #F7CEB8",
"j. c #B4B4C3",
"k. c #BBBBC9",
"l. c #BEEECC",
"z. c #B0ECC2",
"x. c #BCF0CE",
"c. c #C4C4CE",
"v. c #CFC5C6",
"b. c #DECBC3",
"n. c #D6CBC8",
"m. c #DDCEC9",
"M. c #DAD1CF",
"N. c #DDD6D5",
"B. c #DAD7DC",
"V. c #DCD9DE",
"C. c #D6D1D4",
"Z. c #E3D3CC",
"A. c #E9D6C8",
"S. c #F7D6C3",
"D. c #F8D7C6",
"F. c #E9DBD4",
"G. c #E2DDDD",
"H. c #EBDDD9",
"J. c #E6D8D2",
"K. c #F7DFD1",
"L. c #F9DED1",
"P. c #C1EECD",
"I. c #C8EACA",
"U. c #C8EFD2",
"Y. c #D6EFDA",
"T. c #DAEED9",
"R. c #D9F0DC",
"E. c #D4E9CE",
"W. c #EEE3DD",
"Q. c #E8E7D6",
"!. c #F7E1D4",
"~. c #F1E4DC",
"^. c #F8E7DE",
"/. c #E1DEE1",
"(. c #E4E0E1",
"). c #EEE6E2",
"_. c #EDEDE6",
"`. c #F3E6E3",
"'. c #F4EAE5",
"]. c #F8EBE5",
"[. c #F5EEEB",
"{. c #F8EEE9",
"}. c #ECF1E7",
"|. c #EEF1E9",
" X c #E4F0E2",
".X c #F6F1ED",
"XX c #F9F2EE",
"oX c #FCF5F2",
"OX c #FDF9F6",
"+X c #FEFAF8",
"@X c #F6F3F1",
"#X c None",
"$X c black",
/* pixels */
"#X#X#X#X#X#X#XX X X X X X X X X X X X X X X X X X X X X X X X X X X X X X X X X X X X X X X X X X X X X X X X X X #X#X#X#X#X#X#X",
"#X#X#X#X#X#X#XX X X X X X X X X X X X X X X X X X X X X X X X X X X X X X X X X X X X X X X X X X X X X X X X X X #X#X#X#X#X#X#X",
"#X#X#X#X#X#X#XX X X X X X X X X X X X X X X X X X X X X X X X X X X X X X X X X X X X X X X X X X X X X X X X X X #X#X#X#X#X#X#X",
"#X#X#X#X#X#XX X X X X .                                                                                 X X X X X X #X#X#X#X#X#X",
"#X#X#X#XX X X X X X X X X . .                                                                   . . . X X X X X X X X X #X#X#X#X",
"#X#X#X#XX X X X X o O + + # % % % % % % % % % % % % % % % % % % % % % % % % % % % % % % % % % % % % # + + O o X X X X X #X#X#X#X",
"#X#X#XX X X X . X O $ > < 2 A S S U S S S S S S S S S S S S S S U S U S S S S S S S S S S U U S S A 2 < > $ O X . X X X X #X#X#X",
"X X X X X X .   . + , 5 / ] %.;.<.<.<.<.<.<.<.<.<.<.<.<.<.<.<.<.<.<.<.<.<.<.<.<.<.<.<.<.<.<.<.<.;.%.] / 5 , +       X X X X X X ",
"X X X X X X X . o & 2 ` -.8.n.N.G.G.G.G.G.G.G.G.G.G.G.G.G.G.G.G.G.G.G.G.G.G.G.G.G.G.G.G.G.G.G.G.N.n.8.-.` 2 & o . X X X X X X X ",
"X X X X X o O + & 1 / *.a.Z.W.{.oXoXoXoXoXoXoXoXoXoXoXoXoXoXoXoXoXoXoXoXoXoXoXoXoXoXoXoXoXoXoXoX{.W.Z.a.*./ 1 & + O o X X X X X ",
"X X X X X O $ , 2 / %.9.Z.~.{.oXOXOXOXOXOXOX+X+X+X+X+X+X+X+X+X+X+X+X+X+X+X+X+X+X+X+XOXOXOXOXOXOXXX{.~.Z.9.%./ 2 , $ O X X X X X ",
"X X X . X + > 5 ` *.9.Z.W.].XXoXoXoXoXoXoXoXOXOXOXOXOXOXOXOXOXOXOXOXOXOXOXoXOXOXOXoXoXoXoXoXoXoXXXXX'.W.Z.9.*.` 5 > + X   X X X ",
"X X X   X + < / -.a.Z.W.{..X.X{.{..X.X.X.X.X|.|.}.}.}.}.}.}.}.}.}.}.}.'.].'.].].].{.{.XX.X@X@X.XXXXXXX{.W.Z.a.-./ < + X   X X X ",
"X X X   . # 2 ] 8.Z.~.]..X{.'.W.W.`.{..X}.R.U.P.l.l.P.P.P.P.P.l.x.l.I.E.A.g.g.g.g.D.!.`.XXoXoXoXoXoXoXXX].~.Z.8.] 2 # .   X X X ",
"X X X   . % A %.n.~.{.XX.X'.H.Z.Z.H.`.[.R.l.u.t.r.r.t.t.t.t.t.r.^ r.i.e.3.5.4.4.5.6.h.!.{.oXoXoXoXoXoXoXXX].W.n.%.A % .   X X X ",
"X X X     % S ;.N.{.oXoX{.W.Z.s.b.J.`._.U.y.~ W Q Q W W W W W E E W u h n c z z x m 6.D.{.oXoXoXXXXXXXXXXXXX{.N.;.S %     X X X ",
"X X X     % U <.G.oXOXoX{.W.Z.s.b.J.`._.U.t.W r 0 w w w w w r r y y u f j k 3 4 l x 5.S.].@X.X'.'.{.[.XXoXOXoXG.<.S %     X X X ",
"X X X     % U <.(.oX+XOX.X`.F.Z.Z.H.`._.P.t.Q 0 9 9 8 8 q 8 7 y t 6 d s j 3 4 4 3 z 5.S.'.[.).H.H.W.'..XoX+XOX(.<.U %     X X X ",
"X X X     % U <.(.oXOXoX.X{.`.W.W.`.{.}.P.t.Q 0 9 8 0 0 q 0 7 t d g j j a 3 4 4 3 x 5.S.`.).F.b.b.J.).[.OX+XoX(.<.U %     X X X ",
"X X X     % S 1.G.XXoXoX.X.X[.{.[.XXoX|.U.u.! i r e i e e e y u f j k l l l l l l b 6.D.'.).Z.s.s.Z.W.{.oXOXXXG.1.S %     X X X ",
"X X X     % A &.M.`..XXXXXoXoXoXoXoXoX.XY.p.r.~ ~ ~ ~ ~ ~ ~ R w.n M b b v v v v m 4.f.L.'.).F.b.b.J.).[.XXXX`.M.&.A % .   X X X ",
"X X X     % D #.a.J.`.{.oXoXoXoXoXoXoX.X XU.z.p.y.y.p.y.y.y.p.d.d.f.q.q.q.f.q.6.f.h.D.^.{.'.W.F.F.W.[..X{.`.J.a.#.D % .   X X X ",
"X X X   X + 1 ` 7.b.F.`..XoXoXoXoXoXoX.X|. XR.Y.Y.Y.Y.Y.Y.Y.T.Q.Q.!.K.K.K.K.K.K.K.!.^.{.XX[.{.'.'.{..X[.`.F.b.7.` 1 + X   X X X ",
"X X X   X + < / *.8.m.H.'.{..XXXoXoXXXXX.X.X.X.X.X.X.X.X.X.X.XXXXXXXXXXXXXXXXXXXXXXXXXXXXXXXXXXX.X.X{.'.H.m.8.*./ < + X   X X X ",
"X X X . X + , I ' =.9.m.F.~.].XXoXoXoXoXoXoXOXOXOXOXOXOXOXOXOXOXOXOXOXOX+X+XOXOX+XOXOXoXoXoXOXoXoX{.`.H.m.9.=.' I , + X   X X X ",
"X X X X X O ; D ) O.=.9.b.J.~..XoXoXoXoXoXoXoXOXOXOXOXOXOXOXOXOXOXOXOXOXOXOXOXOXOXOXOXoXoXoXOXoXXX`.J.b.9.=.O.) D ; O X X X X X ",
"X X X X X o = V P ) #.=.8.b.F.).[..X[.[.[.[.[.[.[.[.[.[.[.[.[.[.[.[.[.[.[.[.[.[.[.[.[.[.[.[.[.[.).F.b.8.-.#.) P V = O X X X X X ",
"X X X X X o * N F Y O.%.7.9.n.C.B.V./././././././././.G.V.B.B.B.B.B.B.B.B.B.B.B.B.B.B.B.B.B.B.B.C.v.0.-.#._ Y F N * o X X X X X ",
"X X X X X o * N F L } $.&.;.,.<.j.k.c.c.c.c.c.c.c.c.c.c.k.j.j.j.j.j.j.j.j.j.j.j.j.j.j.j.j.j.j.j.,.;.$.O._ ) L F N * o X X X X X ",
"X X X X X o = N F L } X.@.@.o.X.X.@.>.:.:.:.:.:.:.:.:.>.@.X.....................................| } } ) ) L K F N = o X X X X X ",
"X X X X X o = N F L  ...X...{ Y Y { ..+.@.@.@.@.@.@.+.X. .T L K K K L K L L K K K K L L K K L L L K K K K K K F B = o X X X X X ",
"X X X X X o = N F L  .....| T K K T  ...o.+.X.X.o.o.X.| [ K G F G G G G G G G G G G G G G G G G G G G J K K K F B = o X X X X X ",
"X X X X X o = N F L  ...X.| T K K T  .X.+.+.+.o.+.+.X...[ L H G G H H G G G G G G G H H H G G H H H J J K K K F B = o X X X X X ",
"X X X X X o = N F L  ...X...[ L L T | o.+.+.+.+.+.+.+...{ L K J K K K K K K K K K K K K K K K K K K K K K K K F B = o X X X X X ",
"X X X X X o = N F L  ...X...[ L L [ ..o.+.+.+.+.+.+.+...{ L K K K K K K K K K K K K K K K K K K K K K K K K K F B = o X X X X X ",
"X X X X X o = N F L  ...X...[ L L [ ..o.+.+.+.+.+.+.+...{ L K K K K K K K K K K K K K K K K K K K K K K K K K F B = o X X X X X ",
"X X X X X o = N F L  ...X...[ L L [ ..o.+.+.+.+.+.+.+... .Y K K K K K K K K K K K K K K K K K K K K K K K K K F B = o X X X X X ",
"X X X X X o = N F L  ...X...[ L L [ ..o.+.+.+.+.+.+.+...{ Y K K K K K K K K K K K K K K K K K K K K K K K K K F B = o X X X X X ",
"X X X X X o = N F L  ...X...[ L L [ ..o.+.+.+.+.+.+.+...{ L K K K K K K K K K K K K K K K K K K K K K K K K K F B = o X X X X X ",
"X X X X X o = N F L  ...X...[ L L [ ..o.+.+.+.+.+.+.+...{ Y K K K K K K K K K K K K K K K K K K K K K K K K K F B = o X X X X X ",
"X X X X X o = N F L  ...X...[ L L [ ..o.+.+.+.+.+.+.+...{ L K K K K K K K K K K K K K K K K K K K K K K K K K F B = o X X X X X ",
"X X X X X o = N F L  ...X...[ L L [ ..o.+.+.+.+.+.+.+...{ L K K K K K K K K K K K K K K K K K K K K K K K K K F B = o X X X X X ",
"X X X X X o = N F L  ...X...[ L L [ ..o.+.+.+.+.+.+.+...{ L K K K K K K K K K K K K K K K K K K K K K K K K K F B = o X X X X X ",
"X X X X X o = N F L  ...X...[ L L [ ..o.+.+.+.+.+.+.+...{ L K K K K K K K K K K K K K K K K K K K K K K K K K F B = o X X X X X ",
"X X X X X o = N F L  ...X...[ L L [ ..o.+.+.+.+.+.+.+...{ L K K K K K K K K K K K K K K K K K K K K K K K K K F B = o X X X X X ",
"X X X X X o = N F L  ...X...[ L L [ ..o.+.+.+.+.+.+.+...{ L K K K K K K K K K K K K K K K K K K K K K K K K K F B = o X X X X X ",
"X X X X X o = N F L  ...X...[ L L [ ..o.+.+.+.+.+.+.+...{ L K J K K K K K K K K K K K K K K K K K K K K K K K F B = o X X X X X ",
"X X X X X o = N F L  ...X...[ L L [ ..o.+.+.+.+.+.+.+...{ L K K K K K K K K K K K K K K K K K K K K K K K K K F B = o X X X X X ",
"X X X X X o = B F Y  ...X...[ L L [ ..o.+.+.+.+.+.+.+...{ Y K K K K K K K K K K K K K K K K K K K K K K K K K F B = o X X X X X ",
"X X X X X o = B F Y  ...X...[ L L [ ..+.@.@.+.+.@.@.+... .Y K K K K K K K K K K K K K K K K K K K K K K K K K F V = o X X X X X ",
"X X X X X o = B G Y  ...X...[ L L [ ..+.@.@.+.+.@.@.+... .Y K K K K K K K K K K K K K K K K K K K K K K K L K F V = o X X X X X ",
"X X X X X o * N Z L { ..X...[ L L T | X.+.+.+.+.+.+.X...{ L K K K K K K K K K K K K K K K K K K K K K K K K H Z N = o X X X X X ",
"X X X X X o @ - V F L  .|  .T L L T  ................. .[ L K K K K K K K K K K K K K K K K K K K K K K H F Z V - @ o X X X X X ",
"X X X X X o + @ - B Z L [ [ T L L Y T {  . . . . . . .[ T L K K K K K K K K K K K K K K K K K K K K K K F C : - @ + o X X X X X ",
"X X X X X o o o + = B F L L L K K K L L L L L L L L L L L K K K K K K K K K K K K K K K K K K K K K K H C : = + o o o X X X X X ",
"X X X X X X X X o + - V F G F F F F F F F F F F F F F F F F F F F F F F F F F F F F F F F F F F F G F Z V - + o X X X X X X X X ",
"X X X X X X X X X o @ - N B B B B B B N N N N N N N N B B B B B B B B B B B B B B B B B B B B B B V V N - @ o X X X X X X X X X ",
"#X#X#XX X X X X X o + @ = = = = = = = = = = = = = = = = = = = = = = = = = = = = = = = = = = = = = = = = @ + o X X X X X X #X#X#X",
"#X#X#X#XX X X X X o o o o o o o o o o o o o o o o o o o o o o o o o o o o o o o o o o o o o o o o o o o o o o X X X X X #X#X#X#X",
"#X#X#X#XX X X X X X X X X X X X X X X X X X X X X X X X X X X X X X X X X X X X X X X X X X X X X X X X X X X X X X X X #X#X#X#X",
"#X#X#X#X#X#XX X X X X X X X X X X X X X X X X X X X X X X X X X X X X X X X X X X X X X X X X X X X X X X X X X X X #X#X#X#X#X#X",
"#X#X#X#X#X#X#XX X X X X X X X X X X X X X X X X X X X X X X X X X X X X X X X X X X X X X X X X X X X X X X X X X #X#X#X#X#X#X#X",
"#X#X#X#X#X#X#XX X X X X X X X X X X X X X X X X X X X X X X X X X X X X X X X X X X X X X X X X X X X X X X X X X #X#X#X#X#X#X#X",
"#X#X#X#X#X#X#XX X X X X X X X X X X X X X X X X X X X X X X X X X X X X X X X X X X X X X X X X X X X X X X X X X #X#X#X#X#X#X#X"
};
