/* XPM */
static const char *player[] = {
/* columns rows colors chars-per-pixel */
"64 64 216 2 ",
"   c #351E2D",
".  c #3A222E",
"X  c #37202D",
"o  c #3E2631",
"O  c #402731",
"+  c #452932",
"@  c #4C2D33",
"#  c #48293C",
"$  c #502F34",
"%  c #5A2E32",
"&  c #4E3235",
"*  c #4F3338",
"=  c #523135",
"-  c #5B3335",
";  c #55383A",
":  c #583B3C",
">  c #57353A",
",  c #49262F",
"<  c #6C3E39",
"1  c #663837",
"2  c #743E38",
"3  c #773E38",
"4  c #63443E",
"5  c #6E403A",
"6  c #72433C",
"7  c #7B463C",
"8  c #39394A",
"9  c #383547",
"0  c #4B2B41",
"q  c #463E4A",
"w  c #58314A",
"e  c #572F4F",
"r  c #61345C",
"t  c #613456",
"y  c #693965",
"u  c #793E79",
"i  c #723B71",
"p  c #713A6F",
"a  c #44404D",
"s  c #5C5254",
"d  c #58474B",
"f  c #6B4B44",
"g  c #684747",
"h  c #764C42",
"j  c #79574A",
"k  c #795548",
"l  c #685B58",
"z  c #7D695D",
"x  c #7D407B",
"c  c #7C4667",
"v  c #844A3E",
"b  c #8B4D3E",
"n  c #85473B",
"m  c #8D503F",
"M  c #97533F",
"N  c #874A4A",
"B  c #8E5241",
"V  c #825E4E",
"C  c #865446",
"Z  c #925441",
"A  c #955946",
"S  c #995945",
"D  c #86455B",
"F  c #98575A",
"G  c #A45C44",
"H  c #A75D43",
"J  c #A85E51",
"K  c #86624E",
"L  c #9B664D",
"P  c #866351",
"I  c #8A6756",
"U  c #966C56",
"Y  c #957058",
"T  c #AD6347",
"R  c #AD644A",
"E  c #A76A4C",
"W  c #B16447",
"Q  c #B96646",
"!  c #B46648",
"~  c #B36B4B",
"^  c #BD6B4A",
"/  c #BB724E",
"(  c #A36952",
")  c #BB6C57",
"_  c #A37B5D",
"`  c #AA7758",
"'  c #B87857",
"]  c #934C7A",
"[  c #8D486E",
"{  c #A65A6F",
"}  c #867161",
"|  c #906D68",
" . c #B76667",
".. c #B66576",
"X. c #AE696E",
"o. c #C16E4A",
"O. c #C2724E",
"+. c #C8764F",
"@. c #C47651",
"#. c #C67953",
"$. c #CA7D54",
"%. c #C67F5E",
"&. c #C67B7A",
"*. c #C26F70",
"=. c #B5865C",
"-. c #9E8268",
";. c #A2866A",
":. c #A88769",
">. c #B38964",
",. c #BA8F68",
"<. c #B58967",
"1. c #B4926F",
"2. c #BE9269",
"3. c #B79570",
"4. c #CC8157",
"5. c #C4835B",
"6. c #CD8359",
"7. c #D18559",
"8. c #D38A5D",
"9. c #CA8B62",
"0. c #D58E60",
"q. c #D68D6B",
"w. c #CA9B6D",
"e. c #C99367",
"r. c #D59263",
"t. c #DA9463",
"y. c #DD9966",
"u. c #D8906E",
"i. c #DD9C69",
"p. c #D2976B",
"a. c #C49D73",
"s. c #DD9472",
"d. c #C68176",
"f. c #E39F6A",
"g. c #E09966",
"h. c #D3A26C",
"j. c #C9A275",
"k. c #D4A372",
"l. c #DEAC76",
"z. c #DAAD7A",
"x. c #DAA574",
"c. c #DEB17B",
"v. c #E4A26C",
"b. c #ECAC6D",
"n. c #E8A76E",
"m. c #E3A771",
"M. c #E9AC73",
"N. c #E1AF78",
"B. c #E6A974",
"V. c #EEB276",
"C. c #E5B57C",
"Z. c #EBB67B",
"A. c #EDBA7D",
"S. c #E6B77C",
"D. c #F2B576",
"F. c #F0B679",
"G. c #F4BC7E",
"H. c #FABD7C",
"J. c #F3B877",
"K. c #F1AC71",
"L. c #7E4080",
"P. c #864589",
"I. c #8E4793",
"U. c #944A98",
"Y. c #9A5494",
"T. c #974E86",
"R. c #A85886",
"E. c #A2549B",
"W. c #A85995",
"Q. c #A86085",
"!. c #B4668A",
"~. c #B97889",
"^. c #B7689A",
"/. c #B36E96",
"(. c #9B4CA3",
"). c #9D4DA7",
"_. c #A252A5",
"`. c #A252AA",
"'. c #AB5AA9",
"]. c #B05CA9",
"[. c #AD5AB5",
"{. c #AB58B7",
"}. c #B15DB5",
"|. c #B25DB9",
" X c #A14FAA",
".X c #B864AB",
"XX c #BB65BC",
"oX c #B965B4",
"OX c #C36E83",
"+X c #C36D9A",
"@X c #C37199",
"#X c #C36CA5",
"$X c #C56EB8",
"%X c #CA73BB",
"&X c #CF7CA5",
"*X c #BF68C1",
"=X c #BD66C5",
"-X c #C16AC4",
";X c #C269C9",
":X c #CA70CA",
">X c #CC71D1",
",X c #D58789",
"<X c #CF8C8F",
"1X c #EEBD81",
"2X c #EBB386",
"3X c #F3BE81",
"4X c #F5BD85",
"5X c #E6A991",
"6X c #DEA388",
"7X c #F6C182",
"8X c #FAC583",
"9X c #FEC986",
"0X c #FFCF89",
"qX c #FFD28A",
"wX c None",
"eX c black",
/* pixels */
"wXwXwXwXwXwXwXwXwXwXwXwXwXwXwXwXwXwXwXwXwXwXwXwXwXwXwXwXwXwXwXwXwXwXwXwXwXwXwXwXwXwXwXwXwXwXwXwXwXwXwXwXwXwXwXwXwXwXwXwXwXwXwXwX",
"wXwXwXwXwXwXwXwXwXwXwXwXwXwXwXwXwXwXwXwXwXwXwXwXwXwXwXwXwXwXwXwXwXwXwXwXwXwXwXwXwXwXwXwXwXwXwXwXwXwXwXwXwXwXwXwXwXwXwXwXwXwXwXwX",
"wXwXwXwXwXwXwXwXwXwXwXwXwXwXwXwXwXwXwXwXwXwXwXwXwXwXwXwXwXwXwXwXwXwXwXwXwXwXwXwXwXwXwXwXwXwXwXwXwXwXwXwXwXwXwXwXwXwXwXwXwXwXwXwX",
"wXwXwXwXwXwXwXwXwXwXwXwXwXwXwXwXwXwXwXwXwXwXwXwXwXwXwXwXwXwXwXwXwXwXwXwXwXwXwXwXwXwXwXwXwXwXwXwXwXwXwXwXwXwXwXwXwXwXwXwXwXwXwXwX",
"wXwXwXwXwXwXwXwXwXwXwXwXwXwXwXwXwXo o o o o o o o o o o o o o o o o o o o o o o o o o o o o o wXwXwXwXwXwXwXwXwXwXwXwXwXwXwXwXwX",
"wXwXwXwXwXwXwXwXwXwXwXwXwXwXwXwXo o o o o o o o o o o o o o o o o o o o o o o o o o o o o o o o wXwXwXwXwXwXwXwXwXwXwXwXwXwXwXwX",
"wXwXwXwXwXwXwXwXwXwXwXwXwXwXwXwXo o o o o o o o o o o o o o o o o o o o o o o o o o o o o o o o wXwXwXwXwXwXwXwXwXwXwXwXwXwXwXwX",
"wXwXwXwXwXwXwXwXwXwXwXwXwXwXwXo o o o o o o o o o . . . o o o o o o o o o o o o o o o o o o o o o wXwXwXwXwXwXwXwXwXwXwXwXwXwXwX",
"wXwXwXwXwXwXwXwXwXwXwXwXwXo o o o o o o o o o o . . . . o o o o o o o o o o o o o o o o o o o o o o o wXwXwXwXwXwXwXwXwXwXwXwXwX",
"wXwXwXwXwXwXwXwXwXwXwXwXo o o o o o o o o O o o O O O O O O O O O O O O o o o o O O o o o o o o o o o o wXwXwXwXwXwXwXwXwXwXwXwX",
"wXwXwXwXwXwXwXwXwXwXwXwXo o o o o o o O O + @ & * ; ; ; = = $ @ $ $ = = = @ @ @ @ @ + O O o o o o o o o wXwXwXwXwXwXwXwXwXwXwXwX",
"wXwXwXwXwXwXwXwXwXwXwXo o o o o o o o O + @ - 4 h j V j h 5 < < < < 5 5 5 < < 1 - $ @ @ O o o o o o o o o wXwXwXwXwXwXwXwXwXwXwX",
"wXwXwXwXwXwXwXwXwXo o o o o o o o o o , , % < C U _ >.` L A m b m B B Z Z B b 7 2 1 - $ + o o o o o o o o o o wXwXwXwXwXwXwXwXwX",
"wXwXwXwXwXwXwXwXo o o o o o o o o O + @ % 1 7 L >.w.k.p.5.~ T T T T T T T T G Z n 3 1 - @ + O o o o o o o o o o wXwXwXwXwXwXwXwX",
"wXwXwXwXwXwXwXwXo o o o o o O + + @ - 1 2 v A ` e.m.M.v.r.4.@.O.^ ^ ^ ^ ^ ^ ! H M n 3 1 1 - @ @ + O o o o o o o wXwXwXwXwXwXwXwX",
"wXwXwXwXwXwXwXwXo o o o o o + @ - 1 6 C A ( ` 5.r.i.v.v.g.t.8.6.$.O.o.o.o.o.^ W G M b n 7 6 1 - @ + o o o o o o wXwXwXwXwXwXwXwX",
"wXwXwXwXwXwXwXwXo o o o o o @ - 5 v A E ' 9.e.r.r.0.r.y.f.v.v.t.6.@.o.^ o.o.^ ! T H G S S Z v 6 - @ o o o o o o wXwXwXwXwXwXwXwX",
"wXwXwXwXwXwXwXwXo o o o o o @ 1 v S ~ 5.p.x.m.i.0.4.4.0.v.M.M.i.8.@.^ ^ ^ ^ ^ ^ ! ! ! ! ! T S v 1 @ o o o o o o wXwXwXwXwXwXwXwX",
"wXwXwXwXwXwXwXwXo o o o o O @ < m T @.8.f.M.M.v.0.4.4.0.v.M.M.i.8.@.^ ^ ^ ^ ^ ^ ^ ^ ^ o.o.^ T B < @ O o o o o o wXwXwXwXwXwXwXwX",
"wXwXwXwXwXwXwXo o o o o o o @ < Z W @.7.t.v.v.f.t.0.0.t.i.v.i.r.6.O.^ ^ ^ ^ ^ ^ ^ ^ ^ o.O.o.! Z 5 @ o o o o o o o wXwXwXwXwXwXwX",
"wXwXwXwXwXo o o o o o o o o @ < Z T O.$.7.8.t.y.i.v.v.i.t.r.8.4.#.O.^ ^ ^ ^ ^ ^ ^ ^ ^ o.o.^ T Z 5 @ o o o o o o o o o wXwXwXwXwX",
"wXwXwXwXo o o o o o o o o O $ < B T ^ O.O.@.4.r.v.M.M.v.r.4.@.O.^ ^ ^ ^ ^ ^ ^ ^ ^ ^ ^ o.o.^ T Z 5 = O o o o o o o o o o wXwXwXwX",
"wXwXwXwXo o o o o o o o O + - 6 Z T ^ o.^ ^ @.8.i.M.M.i.8.@.^ ^ ^ ^ ^ O.O.@.#.#.#.#.@.O.O.^ T Z 6 - + o o O o o o o o o wXwXwXwX",
"wXwXwXwXo o o o o o O O + @ 1 7 Z T ^ ^ ^ ^ O.4.t.f.f.t.4.O.Q Q Q ^ ^ @.$.6.8.0.t.0.8.7.$.^ T Z 7 1 $ + O O o o o o o o wXwXwXwX",
"wXwXwXwXo o o o o o O @ $ - 1 n S ! ^ ^ ^ ^ o.#.6.8.8.6.@.^ Q Q Q ^ O.$.0.y.v.m.M.n.v.t.4.O.T M n 1 - $ @ O o o o o o o wXwXwXwX",
"wXwXwXwXo o o o o o + @ - 1 3 b G ! ^ ^ ^ ^ ^ O.O.@.@.O.O.^ ^ ^ ^ ^ @.8.y.M.Z.F.F.Z.M.i.8.@.W G b 3 1 % @ + o o o o o o wXwXwXwX",
"wXwXwXwXo o o o o o + $ 1 3 n M H ! ^ o.^ ^ ^ ! R R R ~ / @.@.@.@.#.4.t.m.F.3X1XS.c.x.p.9.$./ T S n 3 1 $ + o o o o o o wXwXwXwX",
"wXwXwXwXo o o o o o @ - 2 n M G W ^ ^ ^ ^ ^ W G A C A L ' 5.8.8.8.8.t.v.V.G.1Xc.j.3.1.,.9.9.4.' R S n 2 - @ o o o o o o wXwXwXwX",
"wXwXwXwXo o o o o o @ 1 7 Z G W ! ^ ^ o.o.^ T A h g f I ` p.v.v.v.v.m.V.G.3XC.j.;.} I _ ,.p.y.8.@.T Z 7 1 @ O o o o o o wXwXwXwX",
"wXwXwXwXo o o o o O @ < b G ! ^ ^ ^ ^ o.o.^ R C g q d z :.k.Z.G.G.F.F.G.8X7Xc.1.z s s z :.x.M.f.8./ G n 1 @ O o o o o o wXwXwXwX",
"wXwXwXwXo o o o o O $ 5 B T ^ o.o.^ ^ O.+.@.~ C d 9 a l :.z.7X9X8X8X8X9X9X7Xz.;.l a a l :.z.Z.M.g.$.~ Z 5 = O o o o o o wXwXwXwX",
"wXwXwXwXo o o o o O = 5 Z T ^ o.o.^ O.$.7.6.' I d 9 8 l ;.z.8X9X9X8X8X9X9X7Xz.-.l 8 8 l ;.z.G.J.n.8.' A 6 = O . o o o o wXwXwXwX",
"wXwXwXwXo o o o o O $ 5 Z T ^ o.o.^ O.7.t.y.e.Y s 9 8 l ;.z.8X9X9X8X8X9X9X7Xz.;.l 8 8 l ;.z.G.H.K.g.5.( h > O . . o o o wXwXwXwX",
"wXwXwXwXo o o o o O @ < B T ^ o.^ ^ @.8.v.M.k.;.l q a l :.z.7X9X9X8X8X9X9X7Xz.;.l a a l :.z.G.H.D.v.9.` k > O . . o o o wXwXwXwX",
"wXwXwXwXo o o o o O $ < B T ^ o.^ ^ #.0.n.Z.z.1.z s s z 1.c.7X8X8XG.G.8X8X7Xc.1.z s s z 1.c.G.H.D.v.9.( k > O . o o o o wXwXwXwX",
"wXwXwXwXo o o o o O $ < B T ^ o.^ ^ #.r.M.F.S.j.;.} } -.a.C.3XH.G.F.F.G.H.3XC.a.-.} } ;.j.S.G.H.K.y.5.( h > O . o o o o wXwXwXwX",
"wXwXwXwXo o o o o O $ < B T ^ o.^ ^ #.0.m.F.1Xc.j.1.1.a.z.A.G.G.V.M.M.D.G.G.A.z.a.1.1.j.c.3XG.D.v.8.' A 6 = O . o o o o wXwXwXwX",
"wXwXwXwXo o o o o O $ < B T ^ o.^ ^ #.8.v.Z.3X1XC.c.c.C.1X3XG.F.M.v.v.M.F.G.3XA.C.c.c.C.1X3XF.M.t.$.~ Z 5 = o o o o o o wXwXwXwX",
"wXwXwXwXo o o o o O $ < B T ^ o.^ ^ @.6.y.M.F.G.7X7X7X7X8X7XG.F.M.v.v.M.F.G.8X8X8X7X3XG.A.C.m.y.7.@.T m < @ o o o o o o wXwXwXwX",
"wXwXwXwXo o o o o O $ < B T ^ ^ ^ ^ O.$.0.i.m.V.G.8X9X9X9X8X3XF.V.M.M.V.F.3X8X9X9X9X7XS.x.e.9.5.@.^ H b < @ o o o o o o wXwXwXwX",
"wXwXwXwXo o o o o O @ < m T ^ ^ ^ ^ O.@.$.7.t.v.V.7X9X9X8X8X7XG.F.F.F.F.G.7X8X9X0X9XG.x.9.' E R ! ! H m < $ O o o o o o wXwXwXwX",
"wXwXwXwXo o o o o O @ < B T ^ o.o.^ ^ ^ O.@.6.t.m.F.7X8X8X7X7X3XG.G.G.G.7X7X8X8X8X7XZ.p.` A Z S T ! T Z 5 = O o o o o o wXwXwXwX",
"wXwXwXwXo o o o o o = 5 A ~ @.@.O.^ ^ ^ ^ ^ @.8.v.V.G.7XG.G.G.G.G.G.G.G.G.G.G.G.A.C.k.<.L N N Z R ) ~ A 6 = o o o o o o wXwXwXwX",
"wXwXwXo o o o . X . & h L ' 6.6.$.o.^ Q Q ^ O.6.y.M.D.J.J.D.D.D.D.D.D.D.D.D.V.m.h.e.<.` F D D F  .5.' L h & . X . o o o o wXwXwX",
"o o o o o o o .   . & k ` e.y.t.4.O.^ Q Q ^ O.4.t.v.b.b.b.b.b.b.b.b.b.b.b.b.v.r.=.` L F [ [ ] ..d.p.e.` k & .   . o o o o o o o ",
"o o o o o o o . . O : V >.k.M.v.8.@.^ Q Q ^ O.$.8.y.f.v.v.f.f.f.v.v.v.v.v.f.t.5.E A N D [ T.W.~.<XN.k.=.V : O . . o o o o o o o ",
"o o o o o o O + @ ; f Y 2.N.F.M.t.6.@.O.^ ^ O.#.9.q.u.u.u.u.u.u.s.s.s.s.s.u.9.) F N D D ] W.^.<X6X2XN.e.Y f ; @ + O o o o o o o ",
"o o o o o o @ ; g j U >.k.Z.G.F.n.t.8.4.#.O./ ) *.&.&.&.&.&.&.,X,X,X,X,X,X&...{ F D D ] R./.<X5X5X4XZ.k.>.U j g ; @ o o o o o o ",
"o o o o . O * f P _ 2.k.C.G.7XG.F.M.v.t.4.O.)  ...!.!.!.!.!.!.@X&X&X&X&X@X!.Q.R.] ] ] Q.~.<X6X5X4X4X3XC.k.2._ P f * o . o o o o ",
"o o o . . O ; j _ w.N.A.3X7X7X7XG.Z.M.y.7.@.)  ...W.E.E.E.E.'..X$X%X%X$X.X'.E.Y.U.Y.W./.<X6X2X4X4X7X7X3XA.N.w._ j ; O . . o o o ",
"o o o . . O : V >.l.7X9X9X8X7XA.Z.N.x.r.4.@.)  .R.E.`.`.`.`.'..X$X%X%X$X.X'.`.).).`.'./.<Xx.N.Z.A.7X8X9X9X7Xl.>.V : O . . o o o ",
"o o o . . O : P ,.C.9XqX0X9X3XC.k.2.>.' / / ) ..!.].[.{.{.[.}..X#X#X#X#X.X}.[.{.|.|..X/.~.<.e.h.N.3X9X0XqX9XC.,.P : O . . o o o ",
"o o o . . O : P ,.C.9XqXqX9XA.k.>.Y P L T ! ) ..^.oX=X=X=X=XXX#X+XOXOX+X#XXX=X=X;X*XoXW.{ I Y =.h.A.9XqXqX9XC.,.P : O . . o o o ",
"o o o . . O : V >.l.7X9X9X7XN.,.I f 4 7 M R ) *.+X$X:X>X>X:X$X+XOX*.*.OX+X$X:X>X>X:XoXY.c g f I ,.N.7X9X9X7Xl.>.V : O . . o o o ",
"o o o . . O ; j _ w.l.S.Z.l.w._ j ; = 1 C J  .OX#X$X:X>X>X:X$X+X.. . ...+X$X:X>X>X:XoXY.y w ; k _ w.l.Z.S.l.w._ j ; O . . o o o ",
"o o o o . o * f P _ >.,.,.>._ K 4 @ + > N F ..!..XoX*X;X;X-XoX^.!.....!.^.oX-X;X;X*X].P.y 0 @ 4 K _ >.,.,.>._ P f * O . o o o o ",
"o o o o o o @ : f j V P P V j 4 * O + w c ] R.W.].].}.|.|.}.].W.W.R.R.W.W.].}.|.|.}._.P.r 0 + = g j V P P V j f : @ o o o o o o ",
"o o o o o o O @ * ; : : : : * & + O # t x T.Y._._.`.`.`.`.`._._.E.E.E.E._._.`.`.`.`.U.x r 0 O + & ; ; : : : ; * @ O o o o o o o ",
"o o o o o o o O o O O O o O O + # # e y x I.(.).).).(.(.(.(.).)._._._._.).).(.).).(.I.u r 0 O . . o O O O O O O o o o o o o o o ",
"o o o o O o o o . . . X X . o # w t y u P.U.(.(.(.(.(.(.(.(.).`.`.[.[.'.`.).(.(.).(.I.u r 0 o . . . . . . . . . o o o o o o o o ",
"wXwXwXo o o o o o . . . . . # w r i L.P.U.(.(.(.(.(.(.(.(.(.).`.}.XXXX|.`.).(.(.).(.I.u r 0 o . . . . . . . . o o o o o o wXwXwX",
"wXwXwXwXo o o o o o o . . o # t p P.I.U.(.(.(.(.(.(.(.(.(.(.`.[.XX;X;XXX[.`.(.).).(.I.u r 0 o . . o o o o o o o o o o o wXwXwXwX",
"wXwXwXwXo o o o o o o . . O 0 r u I.(.).).(.(.(.(.(.(.(.(.(.`.}.=X:X:X*X}.`.).).).(.I.u r 0 o . . o o o o o o o o o o o wXwXwXwX",
"wXwXwXwXo o o o o o o . . O 0 r x U.). X).).(.(.(.(.(.(.(.(.`.}.-X:X:X-X}.`.).(.).(.I.u r 0 o . . o o o o o o o o o o o wXwXwXwX"
};
