/* XPM */
static const char *wall[] = {
/* columns rows colors chars-per-pixel */
"64 64 103 2 ",
"   c #3A2213",
".  c #402717",
"X  c #422917",
"o  c #452B1A",
"O  c #482C19",
"+  c #4B311E",
"@  c #52341E",
"#  c #4C3424",
"$  c #553621",
"%  c #573822",
"&  c #5D3C22",
"*  c #503829",
"=  c #593F2C",
"-  c #603E21",
";  c #5D412A",
":  c #654124",
">  c #61442C",
",  c #69452A",
"<  c #6B4829",
"1  c #734B27",
"2  c #764C28",
"3  c #674930",
"4  c #6B4D33",
"5  c #705136",
"6  c #745539",
"7  c #7E5A39",
"8  c #6C5442",
"9  c #755E4E",
"0  c #7B5F48",
"q  c #79614E",
"w  c #7D6757",
"e  c #7F6859",
"r  c #825832",
"t  c #885E37",
"y  c #865B3A",
"u  c #8A5D3B",
"i  c #87613D",
"p  c #8E613E",
"a  c #815F41",
"s  c #846343",
"d  c #8A6644",
"f  c #83664E",
"g  c #8E6B49",
"h  c #926541",
"j  c #966945",
"k  c #996C47",
"l  c #936F4C",
"z  c #9A6E48",
"x  c #94704D",
"c  c #9C714C",
"v  c #927154",
"b  c #9D7853",
"n  c #97795E",
"m  c #9C7B5D",
"M  c #A1754E",
"N  c #A87C4F",
"B  c #A37750",
"V  c #A57A52",
"C  c #AA7E54",
"Z  c #9E7F64",
"A  c #AC8057",
"S  c #AF8459",
"D  c #B1865B",
"F  c #B3895E",
"G  c #9F8064",
"H  c #A28367",
"J  c #A58568",
"K  c #AB8B6E",
"L  c #B68C60",
"P  c #B98E62",
"I  c #BE9467",
"U  c #BF9668",
"Y  c #B79674",
"T  c #BA9773",
"R  c #C09769",
"E  c #C4996B",
"W  c #C59C6E",
"Q  c #C59C6F",
"!  c #C69E71",
"~  c #C8A17B",
"^  c #CAA37C",
"/  c #CAA47C",
"(  c #CCA67D",
")  c #AC9786",
"_  c #D0AE8C",
"`  c #D3B08E",
"'  c #D5B28D",
"]  c #D8B48F",
"[  c #D9B794",
"{  c #DBB895",
"}  c #DEBB97",
"|  c #DEBB98",
" . c #DFBC99",
".. c #E1BD9A",
"X. c #E6CDB3",
"o. c #EAD0B7",
"O. c #EAD1B8",
"+. c #F1DECC",
"@. c #F4E1CF",
"#. c #F8E3CF",
"$. c #F6E3D1",
"%. c #F8E5D3",
"&. c #F9E6D4",
/* pixels */
"                                                                                                                                ",
"                                                                                                                                ",
"    # 9 9 9 9 9 9 9 9 9 9 9 9 9 9 9 9 9 9 9 9 9 9 9 9 9 9 9 9 9 9 9 9 9 9 9 9 9 9 9 9 9 9 9 9 9 9 9 9 9 9 9 9 9 9 9 9 9 9 *     ",
"    9 +.$.$.$.$.$.$.$.$.$.$.$.$.$.$.$.$.$.$.$.$.$.$.$.$.$.$.$.$.$.$.$.$.$.$.$.$.$.$.$.$.$.$.$.$.$.$.$.$.$.$.$.$.$.$.$.$.$.w     ",
"    9 @.&.&.&.&.&.&.&.&.&.&.&.&.&.&.&.&.&.&.&.&.&.&.&.&.&.&.&.&.&.&.&.&.&.&.&.&.&.&.&.&.&.&.&.&.&.&.&.&.&.&.&.&.&.&.&.&.%.e     ",
"    9 $.&.&.&.&.&.&.&.&.&.&.&.&.&.&.&.&.&.&.&.&.&.&.&.&.&.&.&.&.&.&.&.&.&.&.&.&.&.&.&.&.&.&.&.&.&.&.&.&.&.&.&.&.&.&.&.&.&.e     ",
"    8 X.O.O.O.O.O.O.O.O.O.O.O.O.O.o.O.O.O.O.O.O.O.O.O.O.O.O.O.O.O.O.O.O.O.O.O.O.O.o.O.O.O.O.O.O.O.O.O.O.O.O.O.O.o.O.o.O.o.q     ",
"    > E W W W W W W W W W W W W W W W W W W W W W W W W W W W W W W W W W W W W W W W W W W W W W W W W W W W W W W W W W 4     ",
"    > U F S P E E E R I I I I I I I I I U U I I I I I I I I I I U U I I I I I I I I I I U U I I I U U I I R E E U B M L E 4     ",
"    > I c y B E E W F j j j j j j j j j j j j j j j j j j j j j j j j j j j j j j j j j j j j j j j j j j D E E I h y S E 4     ",
"    > U M h C E E W V , , , , , , , , , , , , , , , , , , , , , , , , , , , , , , , , , , , , , , , , , , c W E U B M L E 4     ",
"    > U U I R W E W l                                                                                     s W E E E E E E 4     ",
"    > U E R F D I W l                                                                                     s W E E E E E b +     ",
"    > U W P p p L W l     0 J H H H H H H H H H H H H H H H H H H H H H H H H H H H H H H H H H H J f     s W E E W R g O       ",
"    > U W P h h L W l     H ..} } } } } } } } } } } } } } } } } } } } } } } } } } } } } } } } } } ..K     s W E E I 7           ",
"    > U E R I I R W l     Z } { { { { { { { { { { { { { { { { { { { { { { { { { { { { { { { { { { } K     s W E W S &           ",
"    > U E E E E E W l     G | } } } } { { { { { { { { { { { { { { { { { { { { { { { { { { { { { { } K     s W E E E L 6 X       ",
"    > U E E E E E W l     m ] ' ' ' ' ' ' ' ' ' ' ' ' ' ' ' ' ' ' ' ' ' ' ' ' ' ' ' ' ' ' ' ' ' ' ] J     s W E W E W R x +     ",
"    > U E E E E E W l     y D S S S S S S S S S S S S S S S S S S S S S S S S S S S S S S S S S S D d     s W L S L E E E 4     ",
"    > U E E E E E W l     7 N N N N N N N N N N N N N N N N N N N N N N N N N N N N N N N N N N N N i     s W c y M E E E 4     ",
"    > U E E E E E W l     7 C N N N N N N N N N N N N N N N N N N N N N N N N N N N N N N N N N N C i     s W B h B E E E 4     ",
"    > U E E E E E W l     7 N N N N N N N N N N N N N N N N N N N N N N N N N N N N N N N N N N N C i     s W R I R E E E 4     ",
"    > U E E E E E W l     7 C N N N N N N N N N N N N N N N N N N N N N N N N N N N N N N N N N N C i     s W E E E E E E 4     ",
"    > U R U R E E W l     7 C N N N N N N N N N N N N N N N N N N N N N N N N N N N N N N N N N N C i     s W E E E E E E 4     ",
"    > U B j C E E W l     7 C N N N N N N N N N N N N N N N N N N N N N N N N N N N N N N N N N N C i     s W E E E E E E 4     ",
"    > U z y B E E W l     7 C N N N N N N N N N N N N N N N N N N N N N N N N N N N N N N N N N N C i     s W C z A E E E 4     ",
"    > U F C L E E W l     < t t t t t t t t t t t t t t t t t t t t t t t t t t t t t t t t t t t t 1     s W c y M E E E 4     ",
"    > U W W E E E W l     & 2 1 1 1 1 1 1 1 1 1 1 1 1 1 1 1 1 1 1 1 1 1 1 1 1 1 1 1 1 1 1 1 1 1 1 2 -     s W D B D E E E 4     ",
"    > R W E E E E W l     & 2 2 2 2 2 2 2 2 2 2 2 2 2 2 2 2 2 2 2 2 2 2 2 2 2 2 2 2 2 2 2 2 2 2 2 2 -     s W E E E E E E 4     ",
"    o s I W E E E W l     & 1 1 1 1 1 1 1 1 1 1 1 1 1 1 1 1 1 1 1 1 1 1 1 1 1 1 1 1 1 1 1 1 1 1 1 1 -     s W E E E E E E 4     ",
"        3 S E E E W l     X O O O O O O O O O O O O O O O O O O O O O O O O O O O O O O O O O O O O X     s W E E R R E E 4     ",
"          a E E E W l                                                                                     s W E I c j F E 4     ",
"      X s I E E E W l     # = = = = = = = = = = = = = = = = = = = = = = = = = = = = = = = = = = = ; *     s W E I h y S E 4     ",
"    O x E E E E E W l     n ` _ _ _ _ _ _ _ _ _ _ _ _ _ _ _ _ _ _ _ _ _ _ _ _ _ _ _ _ _ _ _ _ _ _ ` H     s W E R S C I E 4     ",
"    > R E E E E E W l     G | } { { } } } } } } } } { } } } } } } } } } } } } } { { } } } } { } } } K     s E I I E W E E 4     ",
"    > R E E E E E W l     Z } { { { { { { { { { { { { { { { { { { { { { { { { { { { { { { { { { { } K     s P h j I E E E 4     ",
"    o s I W E E E W l     G  .} } } } } } } } } } } } } } } { } } } } } } } { } } } } } } } } } } | K     s F u p P E E E 4     ",
"        3 L W E E W l     v / ~ ~ ~ ~ ~ ~ ~ ~ ~ ~ ~ ~ ~ ~ ~ ~ ~ ~ ~ ~ ~ ~ ~ ~ ~ ~ ~ ~ ~ ~ ~ ~ ~ ~ ^ m     s R D F R E E E 4     ",
"        3 L W E E W l     7 C N N N N N N N N N N N N N N N N N N N N N N N N N N N N N N N N N N C i     s W E W E E E E 4     ",
"    . 7 I W E E E W l     7 C N N N N N N N N N N N N N N N N N N N N N N N N N N N N N N N N N N C i     s W E E E E E E 4     ",
"    ; I E E E E W W l     7 C N N N N N N N N N N N N N N N N N N N N N N N N N N N N N N N N N N C i     s W E E E E E E 4     ",
"    > R E E R L F R l     7 C N N N N N N N N N N N N N N N N N N N N N N N N N N N N N N N N N N C i     s W E E E E E E 4     ",
"    > R E E I h u F x     7 C N N N N N N N N N N N N N N N N N N N N N N N N N N N N N N N N N N C i     s W E E E E E E 4     ",
"    > U E E I j h F x     7 C N N N N N N N N N N N N N N N N N N N N N N N N N N N N N N N N N N C i     s W E U I I E E 4     ",
"    > U E E E I I E l     7 N N N N N N N N N N N N N N N N N N N N N N N N N N N N N N N N N N N C i     s W E B d M E E 4     ",
"    > U E E E E E W l     7 C N N N N N N N N N N N N N N N N N N N N N N N N N N N N N N N N N N C i     s W E B y z E E 4     ",
"    > R I A S R E W l     7 N N N N N N N N N N N N N N N N N N N N N N N N N N N N N N N N N N N N y     s W E P D L E E 4     ",
"    > R F u p I E W l     , r r r r r r r r r r r r r r r r r r r r r r r r r r r r r r r r r r r r <     s W E E W E E E 4     ",
"    > R L j z I E W l     & 2 1 1 1 1 1 1 1 1 1 1 1 1 1 1 1 1 1 1 1 1 1 1 1 1 1 1 1 1 1 1 1 1 1 1 2 -     s W W W E E E E 4     ",
"    > U E R R E E W l     - 2 2 2 2 2 2 2 2 2 2 2 2 2 2 2 2 2 2 2 2 2 2 2 2 2 2 2 2 2 2 2 2 2 2 2 2 :     s W F S L E E E 4     ",
"    > U E E E E E W l     @ - - - - - - - - - - - - - - - - - - - - - - - - - - - - - - - - - - - - @     s W c y M E E x +     ",
"    > U E E E E E W l                                                                                     s W B h C U s o       ",
"    > U E W E E E W l                                                                                     s W R U R d           ",
"    > R I C C I E E T ) ) ) ) ) ) ) ) ) ) ) ) ) ) ) ) ) ) ) ) ) ) ) ) ) ) ) ) ) ) ) ) ) ) ) ) ) ) ) ) ) ) Y E E E W F 5         ",
"    > R F u p I E E ' @.#.#.#.#.#.#.#.#.#.#.#.#.#.#.#.#.#.#.#.#.#.#.#.#.#.#.#.#.#.#.#.#.#.#.#.#.#.#.#.#.#.[ E E E E W R g O     ",
"    > R P k z I E E ! ( ( ( ( ( ( ( ( ( ( ( ( ( ( ( ( ( ( ( ( ( ( ( ( ( ( ( ( ( ( ( ( ( ( ( ( ( ( ( ( ( ( ! E E E E E E E 4     ",
"    > R E R E W W W W E E E E E E E E E E E E E E E E E E E E E E E E E E E E E E E E E E E E E E E E E E E W W W W W W E 4     ",
"    & V C C C C C C C C C C C C C C C C C C C C C C C C C C C C C C C C C C C C C C C C C C C C C C C C C C C C C C C C C >     ",
"    @ y u u u u u u u u u u u u u u u u u u u u u u u u u u u u u u u u u u u u u u u u u u u u u u u u u u u u u u u u u %     ",
"    @ u u u u u u u u u u u u u u u u u u u u u u u u u u u u u u u u u u u u u u u u u u u u u u u u u u u u u u u u u u %     ",
"    @ y u u u u u u u u u u u u u u u u u u u u u u u u u u u u u u u u u u u u u u u u u u u u u u u u u u u u u u u u u $     ",
"    X $ $ $ $ $ $ $ $ $ $ $ $ $ $ $ $ $ $ $ $ $ $ $ $ $ $ $ $ $ $ $ $ $ $ $ $ $ $ $ $ $ $ $ $ $ $ $ $ $ $ $ $ $ $ $ $ $ $ o     ",
"                                                                                                                                ",
"                                                                                                                                "
};
